<?xml version="1.0" encoding="UTF-8" standalone="no"?>
<!-- Created with Inkscape (http://www.inkscape.org/) -->

<svg
   xmlns:svg="http://www.w3.org/2000/svg"
   xmlns="http://www.w3.org/2000/svg"
   version="1.1"
   width="393.871"
   height="349.879"
   viewBox="0 0 393.871 349.879"
   id="Layer_1"
   xml:space="preserve"
   style="overflow:visible"><defs
   id="defs9" />
<path
   d="m 305.819,58.59 c 5.026,16.925 -1.371,38.442 7.077,53.995 l 12.13,21.502 c -0.679,7.566 -17.387,7.322 -8.693,17.157 1.372,8.707 -8.462,9.386 -13.271,12.591 3.205,1.373 9.154,-0.924 9.834,4.348 0.692,7.09 -9.373,6.397 -10.514,13.257 2.065,7.554 -0.23,15.567 -7.552,18.772 -18.08,7.322 -40.263,-8.462 -56.277,7.092 -38.673,35.685 -62.472,80.307 -89.231,122.401 -7.091,0.218 -13.271,-6.411 -18.311,-11.668 -7.988,-8.014 -14.861,-18.772 -10.283,-30.196 13.951,-30.196 34.312,-57.663 59.469,-83.281 18.08,-18.99 49.201,-6.629 71.627,-14.874 10.976,-7.091 -4.36,-23.568 12.578,-25.851 1.129,-2.526 0.911,-6.858 -2.743,-7.091 h -6.642 v -2.281 c 5.257,-1.386 12.237,-3.028 13.731,-8.708 -1.141,-3.653 -3.205,-6.75 -0.732,-11.124 0,0 7.878,-4.673 8.829,-7.363 1.576,-4.496 -17.618,-21.801 -16.328,-44.894 0.544,-9.848 -5.949,-42.544 -19.221,-59.469 -4.809,77.549 -64.522,128.339 -118.979,185.077 -19.439,23.581 -35.916,48.276 -49.635,74.356 C 47.742,280.288 26.008,265.631 12.737,243.68 -2.83,214.855 -1.676,175.041 3.35,141.87 9.069,116.469 25.532,86.503 53.922,81.233 63.756,78.951 73.591,76.669 84.35,76.9 88.683,70.719 86.862,62.026 90.299,55.397 111.125,7.57 163.055,-1.802 211.1,0.262 c 38.428,2.975 80.985,18.976 94.719,58.328"
   id="path3"
   style="fill:#13835d" />
<path
   d="m 352.194,89.181 c -4.36,20.348 8.463,36.594 16.463,53.302 -0.679,2.064 -2.975,3.192 -4.795,3.885 -14.426,2.743 2.744,14.643 -8.246,19.899 -2.743,2.758 -9.372,0.693 -9.372,5.488 2.962,0.462 7.308,-1.358 9.372,2.064 0.693,1.603 1.156,4.36 -0.679,5.732 -15.335,2.961 -1.833,19.9 -13.733,26.298 -16.463,5.72 -34.543,-2.513 -50.097,5.04 -39.813,30.414 -63.843,73.446 -88.781,112.799 -3.655,8.231 -8.449,16.68 -7.77,26.08 41.403,2.282 71.382,-31.582 93.809,-63.382 22.86,0.448 44.607,-1.616 63.367,-10.975 25.388,-12.145 37.749,-38.442 41.172,-64.061 2.064,-45.082 5.04,-101.577 -40.71,-122.169"
   id="path5"
   style="fill:#13835d" />
</svg>